<?xml version="1.0" encoding="utf-8"?>
<!-- Generator: Adobe Illustrator 16.0.0, SVG Export Plug-In . SVG Version: 6.00 Build 0)  -->
<!DOCTYPE svg PUBLIC "-//W3C//DTD SVG 1.1//EN" "http://www.w3.org/Graphics/SVG/1.1/DTD/svg11.dtd">
<svg version="1.1" id="Layer_1" xmlns="http://www.w3.org/2000/svg" xmlns:xlink="http://www.w3.org/1999/xlink" x="0px" y="0px"
	 width="50px" height="50px" viewBox="0 0 50 50" enable-background="new 0 0 50 50" xml:space="preserve">
	<g>
		<path fill="#008300" d="M15.601 8.093s.12-3.743-2.115-5.976C11.252-.116 7.511.001 7.511.001S7.39 3.744 9.625 5.977c2.233 2.233 5.976 2.116 5.976 2.116z"/>
		<path fill="#008300" d="M21.576 5.977C23.812 3.745 23.692.001 23.692.001s-3.741-.117-5.975 2.116c-2.235 2.232-2.115 5.976-2.115 5.976s3.743.117 5.974-2.116z"/>
		<path fill="#D80027"
					d="M29.06 13.707c-.79-7.658-9.339-7.539-13.458-3.843-4.12-3.696-12.664-3.815-13.458 3.843-1.022 9.858 13.458 17.496 13.458 17.496s14.479-7.638 13.458-17.496zM5.395 16.954c-.461 0-.834-.598-.834-1.334 0-.735.373-1.333.834-1.333s.834.598.834 1.333c0 .736-.374 1.334-.834 1.334zm0-4.083c-.461 0-.834-.598-.834-1.334 0-.735.373-1.333.834-1.333s.834.598.834 1.333c0 .736-.374 1.334-.834 1.334zm3.401 8.166c-.461 0-.834-.598-.834-1.334 0-.734.373-1.333.834-1.333s.834.599.834 1.333c0 .736-.373 1.334-.834 1.334zm0-4.083c-.461 0-.834-.598-.834-1.334 0-.735.373-1.333.834-1.333s.834.598.834 1.333c0 .736-.373 1.334-.834 1.334zm0-4.083c-.461 0-.834-.598-.834-1.334 0-.735.373-1.333.834-1.333s.834.598.834 1.333c0 .736-.373 1.334-.834 1.334zM12.2 25.12c-.461 0-.834-.598-.834-1.334 0-.734.373-1.333.834-1.333s.834.599.834 1.333c0 .736-.373 1.334-.834 1.334zm0-4.083c-.461 0-.834-.598-.834-1.334 0-.734.373-1.333.834-1.333s.834.599.834 1.333c0 .736-.373 1.334-.834 1.334zm0-4.083c-.461 0-.834-.598-.834-1.334 0-.735.373-1.333.834-1.333s.834.598.834 1.333c0 .736-.373 1.334-.834 1.334zm0-4.083c-.461 0-.834-.598-.834-1.334 0-.735.373-1.333.834-1.333s.834.598.834 1.333c0 .736-.373 1.334-.834 1.334zm3.402 16.332c-.461 0-.834-.598-.834-1.334 0-.734.373-1.333.834-1.333s.834.599.834 1.333c0 .736-.374 1.334-.834 1.334zm0-4.083c-.461 0-.834-.598-.834-1.334 0-.734.373-1.333.834-1.333s.834.599.834 1.333c0 .736-.374 1.334-.834 1.334zm0-4.083c-.461 0-.834-.598-.834-1.334 0-.734.373-1.333.834-1.333s.834.599.834 1.333c0 .736-.374 1.334-.834 1.334zm0-4.083c-.461 0-.834-.598-.834-1.334 0-.735.373-1.333.834-1.333s.834.598.834 1.333c0 .736-.374 1.334-.834 1.334zm3.401 8.166c-.461 0-.834-.598-.834-1.334 0-.734.373-1.333.834-1.333s.834.599.834 1.333c0 .736-.373 1.334-.834 1.334zm0-4.083c-.461 0-.834-.598-.834-1.334 0-.734.373-1.333.834-1.333s.834.599.834 1.333c0 .736-.373 1.334-.834 1.334zm0-4.083c-.461 0-.834-.598-.834-1.334 0-.735.373-1.333.834-1.333s.834.598.834 1.333c0 .736-.373 1.334-.834 1.334zm0-4.083c-.461 0-.834-.598-.834-1.334 0-.735.373-1.333.834-1.333s.834.598.834 1.333c0 .736-.373 1.334-.834 1.334zm3.403 8.166c-.461 0-.834-.598-.834-1.334 0-.734.373-1.333.834-1.333s.834.599.834 1.333c0 .736-.373 1.334-.834 1.334zm0-4.083c-.461 0-.834-.598-.834-1.334 0-.735.373-1.333.834-1.333s.834.598.834 1.333c0 .736-.373 1.334-.834 1.334zm0-4.083c-.461 0-.834-.598-.834-1.334 0-.735.373-1.333.834-1.333s.834.598.834 1.333c0 .736-.373 1.334-.834 1.334zm3.403 4.083c-.461 0-.834-.598-.834-1.334 0-.735.373-1.333.834-1.333s.834.598.834 1.333c0 .736-.373 1.334-.834 1.334zm0-4.083c-.461 0-.834-.598-.834-1.334 0-.735.373-1.333.834-1.333s.834.598.834 1.333c0 .736-.373 1.334-.834 1.334z"/>
	</g>
</svg>

